<svg version="1.1" id="Layer_1" xmlns="http://www.w3.org/2000/svg" xmlns:xlink="http://www.w3.org/1999/xlink" x="0px" y="0px" viewBox="0 0 500 500" style="width: 178px;" xml:space="preserve" data-imageid="production-line-98" imageName="Production Line" class="illustrations_image">
<style type="text/css">
	.st0_production-line-98{fill:#FFFFFF;}
	.st1_production-line-98{fill:#D1D3D4;}
	.st2_production-line-98{fill:#231F20;}
	.st3_production-line-98{fill:#68E1FD;}
</style>
<g id="Boxes_production-line-98">
	<rect x="167.8" y="202.8" class="st0_production-line-98" width="38.9" height="34"/>
	<path class="st1_production-line-98" d="M206.7,237.5h-38.9c-0.4,0-0.7-0.3-0.7-0.7v-34c0-0.4,0.3-0.7,0.7-0.7h38.9c0.4,0,0.7,0.3,0.7,0.7v34&#10;&#9;&#9;C207.4,237.2,207.1,237.5,206.7,237.5z M168.5,236.1H206v-32.6h-37.5V236.1z"/>
	<rect x="206.7" y="202.7" class="st0_production-line-98" width="13" height="34"/>
	<path class="st1_production-line-98" d="M219.7,237.5h-13c-0.4,0-0.7-0.3-0.7-0.7v-34c0-0.4,0.3-0.7,0.7-0.7h13c0.4,0,0.7,0.3,0.7,0.7v34&#10;&#9;&#9;C220.4,237.2,220.1,237.5,219.7,237.5z M207.4,236.1H219v-32.6h-11.6V236.1z"/>
	<rect x="184.7" y="202.8" class="st0_production-line-98" width="5.1" height="9.2"/>
	<path class="st1_production-line-98" d="M189.8,212.6h-5.1c-0.4,0-0.7-0.3-0.7-0.7v-9.2c0-0.4,0.3-0.7,0.7-0.7h5.1c0.4,0,0.7,0.3,0.7,0.7v9.2&#10;&#9;&#9;C190.5,212.3,190.2,212.6,189.8,212.6z M185.4,211.2h3.7v-7.8h-3.7V211.2z"/>
	<path class="st1_production-line-98" d="M177.7,229.2h-5.9c-0.4,0-0.7-0.3-0.7-0.7c0-0.4,0.3-0.7,0.7-0.7c0,0,0,0,0,0h5.9c0.4,0,0.7,0.3,0.7,0.7&#10;&#9;&#9;C178.4,228.9,178.1,229.2,177.7,229.2z"/>
	<rect x="238.6" y="222.8" class="st0_production-line-98" width="38.9" height="34"/>
	<path class="st1_production-line-98" d="M277.5,257.6h-38.9c-0.4,0-0.7-0.3-0.7-0.7l0,0v-34c0-0.4,0.3-0.7,0.7-0.7h38.9c0.4,0,0.7,0.3,0.7,0.7&#10;&#9;&#9;c0,0,0,0,0,0v34C278.2,257.2,277.9,257.6,277.5,257.6L277.5,257.6z M239.3,256.2h37.5v-32.6h-37.5V256.2z"/>
	<rect x="277.5" y="222.8" class="st0_production-line-98" width="13" height="34"/>
	<path class="st1_production-line-98" d="M290.5,257.6h-13c-0.4,0-0.7-0.3-0.7-0.7v0v-34c0-0.4,0.3-0.7,0.7-0.7h13c0.4,0,0.7,0.3,0.7,0.7c0,0,0,0,0,0&#10;&#9;&#9;v34C291.2,257.2,290.9,257.6,290.5,257.6L290.5,257.6z M278.2,256.2h11.6v-32.6h-11.6V256.2z"/>
	<rect x="255.5" y="222.8" class="st0_production-line-98" width="5.1" height="9.2"/>
	<path class="st1_production-line-98" d="M260.6,232.7h-5.1c-0.4,0-0.7-0.3-0.7-0.7v-9.2c0-0.4,0.3-0.7,0.7-0.7h5.1c0.4,0,0.7,0.3,0.7,0.7c0,0,0,0,0,0&#10;&#9;&#9;v9.2C261.3,232.4,261,232.7,260.6,232.7C260.6,232.7,260.6,232.7,260.6,232.7z M256.2,231.3h3.7v-7.8h-3.7V231.3z"/>
	<path class="st1_production-line-98" d="M248.5,249.3h-5.9c-0.4,0-0.7-0.3-0.7-0.7c0-0.4,0.3-0.7,0.7-0.7c0,0,0,0,0,0h5.9c0.4,0,0.7,0.3,0.7,0.7&#10;&#9;&#9;C249.2,249,248.9,249.3,248.5,249.3C248.5,249.3,248.5,249.3,248.5,249.3z"/>
	<rect x="314.8" y="222.8" class="st0_production-line-98" width="38.9" height="34"/>
	<path class="st1_production-line-98" d="M353.7,257.6h-38.9c-0.4,0-0.7-0.3-0.7-0.7v0v-34c0-0.4,0.3-0.7,0.7-0.7l0,0h38.9c0.4,0,0.7,0.3,0.7,0.7&#10;&#9;&#9;c0,0,0,0,0,0v34C354.4,257.2,354,257.6,353.7,257.6L353.7,257.6z M315.5,256.2H353v-32.6h-37.5V256.2z"/>
	<rect x="353.7" y="222.8" class="st0_production-line-98" width="13" height="34"/>
	<path class="st1_production-line-98" d="M366.7,257.6h-13c-0.4,0-0.7-0.3-0.7-0.7v0v-34c0-0.4,0.3-0.7,0.7-0.7h13c0.4,0,0.7,0.3,0.7,0.7c0,0,0,0,0,0&#10;&#9;&#9;v34C367.4,257.2,367.1,257.6,366.7,257.6L366.7,257.6z M354.4,256.2H366v-32.6h-11.6L354.4,256.2z"/>
	<rect x="331.7" y="222.8" class="st0_production-line-98" width="5.1" height="9.2"/>
	<path class="st1_production-line-98" d="M336.8,232.7h-5.1c-0.4,0-0.7-0.3-0.7-0.7c0,0,0,0,0,0v-9.2c0-0.4,0.3-0.7,0.7-0.7l0,0h5.1&#10;&#9;&#9;c0.4,0,0.7,0.3,0.7,0.7v9.2C337.5,232.4,337.2,232.7,336.8,232.7z M332.4,231.3h3.7v-7.8h-3.7V231.3z"/>
	<path class="st1_production-line-98" d="M324.6,249.3h-5.9c-0.4,0-0.7-0.3-0.7-0.7c0-0.4,0.3-0.7,0.7-0.7h5.9c0.4,0,0.7,0.3,0.7,0.7&#10;&#9;&#9;S325,249.3,324.6,249.3C324.7,249.3,324.7,249.3,324.6,249.3z"/>
	
		<rect x="408.9" y="265.2" transform="matrix(0.7379 -0.6749 0.6749 0.7379 -80.4683 362.0986)" class="st0_production-line-98" width="34" height="38.9"/>
	<path class="st1_production-line-98" d="M426.5,311.2c-0.2,0-0.4-0.1-0.5-0.2l-26.2-28.7c-0.1-0.1-0.2-0.3-0.2-0.5c0-0.2,0.1-0.4,0.2-0.5l25.1-23&#10;&#9;&#9;c0.3-0.3,0.7-0.3,1,0c0,0,0,0,0,0l26.2,28.7c0.3,0.3,0.3,0.7,0,1c0,0,0,0,0,0L427,311C426.9,311.1,426.7,311.2,426.5,311.2z&#10;&#9;&#9; M401.2,281.8l25.3,27.7l24.1-22l-25.3-27.7L401.2,281.8z"/>
	<rect x="426.4" y="297.3" transform="matrix(0.7379 -0.6749 0.6749 0.7379 -88.8255 378.92)" class="st0_production-line-98" width="34" height="13"/>
	<path class="st1_production-line-98" d="M435.3,320.8L435.3,320.8c-0.2,0-0.4-0.1-0.5-0.2L426,311c-0.3-0.3-0.3-0.7,0-1c0,0,0,0,0,0l25.1-23&#10;&#9;&#9;c0.1-0.1,0.3-0.2,0.5-0.2c0.2,0,0.4,0.1,0.5,0.2l8.8,9.6c0.3,0.3,0.3,0.7,0,1l-25.1,23C435.6,320.8,435.5,320.8,435.3,320.8z&#10;&#9;&#9; M427.5,310.5l7.9,8.6l24.1-22l-7.9-8.6L427.5,310.5z"/>
	
		<rect x="430.5" y="273.7" transform="matrix(0.7379 -0.6749 0.6749 0.7379 -72.4057 366.0927)" class="st0_production-line-98" width="9.2" height="5.1"/>
	<path class="st1_production-line-98" d="M433.4,281.9L433.4,281.9c-0.2,0-0.4-0.1-0.5-0.2l-3.5-3.7c-0.3-0.3-0.3-0.7,0-1l6.8-6.2c0.3-0.3,0.7-0.2,1,0&#10;&#9;&#9;c0,0,0,0,0,0l3.4,3.8c0.3,0.3,0.3,0.7,0,1l-6.8,6.2C433.8,281.9,433.6,282,433.4,281.9z M431,277.5l2.5,2.7l5.7-5.2l-2.5-2.7&#10;&#9;&#9;L431,277.5z"/>
	<path class="st1_production-line-98" d="M413,284.2c-0.2,0-0.4-0.1-0.5-0.2l-4-4.4c-0.3-0.2-0.4-0.7-0.1-1c0.2-0.3,0.7-0.4,1-0.1&#10;&#9;&#9;c0.1,0,0.1,0.1,0.2,0.2l4,4.4c0.3,0.3,0.3,0.7,0,1C413.4,284.2,413.2,284.2,413,284.2z"/>
</g>
<g id="Robot_Arm_production-line-98">
	<path class="st2_production-line-98" d="M166.4,213.6c-0.5,0-1-0.3-1.2-0.7l-4.6-8.5c-0.3-0.6-0.1-1.4,0.4-1.8l26.6-18.8c0.6-0.5,1.4-0.5,2,0&#10;&#9;&#9;s0.5,1.4,0,2c-0.1,0.1-0.2,0.2-0.4,0.3l-25.6,18.1l4,7.4c0.4,0.7,0.1,1.5-0.6,1.9C166.9,213.5,166.6,213.6,166.4,213.6z"/>
	<path class="st2_production-line-98" d="M213.2,213.6c-0.8,0-1.4-0.6-1.4-1.4c0-0.2,0.1-0.5,0.2-0.7l4-7.4L190.3,186c-0.7-0.4-0.9-1.3-0.5-1.9&#10;&#9;&#9;c0.4-0.7,1.3-0.9,1.9-0.5c0.1,0,0.1,0.1,0.2,0.1l26.6,18.8c0.6,0.4,0.8,1.2,0.4,1.8l-4.6,8.5C214.2,213.3,213.7,213.6,213.2,213.6z&#10;&#9;&#9;"/>
	<path class="st2_production-line-98" d="M189.8,185c-0.8,0-1.4-0.6-1.4-1.4V155c0-0.8,0.6-1.4,1.4-1.4c0.8,0,1.4,0.6,1.4,1.4v28.6&#10;&#9;&#9;C191.2,184.3,190.6,185,189.8,185C189.8,185,189.8,185,189.8,185z"/>
	<rect x="183.2" y="151.8" class="st0_production-line-98" width="13.2" height="13.2"/>
	<path class="st2_production-line-98" d="M196.4,165.7h-13.2c-0.4,0-0.7-0.3-0.7-0.7v-13.2c0-0.4,0.3-0.7,0.7-0.7h13.2c0.4,0,0.7,0.3,0.7,0.7V165&#10;&#9;&#9;C197.1,165.4,196.8,165.7,196.4,165.7z M183.9,164.3h11.8v-11.8h-11.8V164.3z"/>
	<path class="st0_production-line-98" d="M141.5,142.5h54.4c4.4,0,7.9,3.6,7.9,7.9v0c0,4.4-3.6,7.9-7.9,7.9h-54.4c-4.4,0-7.9-3.6-7.9-7.9v0&#10;&#9;&#9;C133.6,146,137.1,142.5,141.5,142.5z"/>
	<path class="st2_production-line-98" d="M195.9,159.1h-54.3c-4.8-0.2-8.5-4.2-8.4-8.9c0.2-4.6,3.8-8.2,8.4-8.4h54.3c4.8-0.2,8.8,3.6,8.9,8.4&#10;&#9;&#9;c0.2,4.8-3.6,8.8-8.4,8.9C196.2,159.1,196,159.1,195.9,159.1L195.9,159.1z M141.5,143.2c-4,0.1-7.1,3.5-7,7.5c0.1,3.8,3.2,6.8,7,7&#10;&#9;&#9;h54.3c4,0.1,7.4-3,7.5-7s-3-7.4-7-7.5c-0.2,0-0.4,0-0.5,0H141.5z"/>
	<path class="st0_production-line-98" d="M147.1,138.6L147.1,138.6c6.7,4,8.9,12.6,4.9,19.3l-36.7,61.9c-4,6.7-12.6,8.9-19.3,4.9l0,0&#10;&#9;&#9;c-6.7-4-8.9-12.6-4.9-19.3l36.7-61.9C131.7,136.9,140.4,134.7,147.1,138.6z"/>
	<path class="st2_production-line-98" d="M103.5,227.4c-2.6,0-5.2-0.7-7.5-2.1c-7-4.2-9.3-13.2-5.2-20.2l36.6-61.9c4.3-6.9,13.4-9.1,20.3-4.8&#10;&#9;&#9;c6.7,4.2,9,12.9,5.1,19.8l-36.6,61.9c-2,3.4-5.2,5.8-9,6.8C106,227.3,104.8,227.4,103.5,227.4z M140.2,137.4&#10;&#9;&#9;c-1.1,0-2.3,0.1-3.4,0.4c-3.4,0.9-6.4,3.1-8.2,6.1L92,205.9c-3.8,6.4-1.7,14.6,4.7,18.3c3.1,1.8,6.7,2.3,10.1,1.4&#10;&#9;&#9;c3.4-0.9,6.4-3.1,8.2-6.1l36.6-61.9c3.8-6.4,1.7-14.6-4.7-18.3C144.9,138,142.5,137.4,140.2,137.4L140.2,137.4z"/>
	<circle class="st2_production-line-98" cx="141.6" cy="148.2" r="4.2"/>
	<path class="st2_production-line-98" d="M141.6,153.1c-2.7,0-4.9-2.2-4.9-4.9c0-2.7,2.2-4.9,4.9-4.9c2.7,0,4.9,2.2,4.9,4.9c0,0,0,0,0,0&#10;&#9;&#9;C146.6,150.9,144.4,153.1,141.6,153.1z M141.6,144.7c-2,0-3.5,1.6-3.5,3.5c0,2,1.6,3.5,3.5,3.5c2,0,3.5-1.6,3.5-3.5c0,0,0,0,0,0&#10;&#9;&#9;C145.2,146.3,143.6,144.7,141.6,144.7z"/>
	<path class="st0_production-line-98" d="M100.8,206.6L100.8,206.6c13.4,0,24.3,10.9,24.3,24.3c0,0,0,0,0,0.1v120.5l0,0H76.5l0,0V231&#10;&#9;&#9;C76.5,217.6,87.3,206.7,100.8,206.6C100.8,206.6,100.8,206.6,100.8,206.6z"/>
	<path class="st2_production-line-98" d="M125.1,352.2H76.5c-0.4,0-0.7-0.3-0.7-0.7V231c0-13.8,11.2-25,25-25s25,11.2,25,25v120.5&#10;&#9;&#9;C125.8,351.9,125.5,352.2,125.1,352.2L125.1,352.2z M77.2,350.8h47.2V231c0.3-13-10.1-23.8-23.1-24.1S77.5,217,77.2,230&#10;&#9;&#9;c0,0.3,0,0.6,0,1V350.8z"/>
	<circle class="st2_production-line-98" cx="100.8" cy="226.7" r="11.3"/>
	<path class="st2_production-line-98" d="M100.8,238.7c-6.6,0-12-5.4-12-12s5.4-12,12-12s12,5.4,12,12S107.4,238.7,100.8,238.7z M100.8,216.1&#10;&#9;&#9;c-5.8,0-10.6,4.7-10.6,10.6c0,5.8,4.7,10.6,10.6,10.6c5.8,0,10.6-4.7,10.6-10.6C111.4,220.9,106.7,216.1,100.8,216.1z"/>
</g>
<g id="Reel_production-line-98">
	<polygon class="st3_production-line-98 targetColor" points="448.3,359.9 50.5,359.9 50.5,283.3 366.2,283.3 &#9;" style="fill: rgb(85, 85, 85);"/>
	<path class="st0_production-line-98" d="M443.4,363.4c-3.9,0-7.5-1.6-10.1-4.5l-72.5-80.1c-5.1-5.6-4.6-14.3,1-19.3c5.6-5.1,14.3-4.6,19.3,1l72.5,80.1&#10;&#9;&#9;c5.1,5.6,4.7,14.2-0.9,19.3C450.1,362.1,446.8,363.4,443.4,363.4L443.4,363.4z"/>
	<path class="st2_production-line-98" d="M443.4,364c-4.1,0-7.9-1.7-10.6-4.7l-72.5-80c-5.3-5.9-4.9-15,1-20.3c5.9-5.3,15-4.9,20.3,1l72.5,80&#10;&#9;&#9;c5.3,5.9,4.9,15-1,20.3C450.3,362.7,446.9,364,443.4,364L443.4,364z M370.8,256.7c-7.2,0.1-13,5.9-12.9,13.1c0,3.2,1.2,6.2,3.3,8.6&#10;&#9;&#9;l72.5,80.1c4.5,5.6,12.6,6.6,18.3,2.1c5.6-4.5,6.6-12.6,2.1-18.3c-0.3-0.4-0.7-0.8-1.1-1.2l-72.5-80&#10;&#9;&#9;C378,258.2,374.5,256.7,370.8,256.7z"/>
	<path class="st0_production-line-98" d="M370.3,283.3h-317c-7.5,0-13.7-6.1-13.7-13.7c0-7.5,6.1-13.7,13.7-13.7h317c7.5,0,13.7,6.1,13.7,13.7&#10;&#9;&#9;C383.9,277.2,377.8,283.3,370.3,283.3z"/>
	<path class="st2_production-line-98" d="M370.3,284h-317c-7.9,0-14.4-6.4-14.4-14.4s6.4-14.4,14.4-14.4h317c7.9,0,14.4,6.4,14.4,14.4&#10;&#9;&#9;S378.2,284,370.3,284z M53.3,256.7c-7.2,0.5-12.6,6.7-12.1,13.9c0.4,6.5,5.6,11.6,12.1,12.1h317c7.2-0.5,12.6-6.7,12.1-13.9&#10;&#9;&#9;c-0.4-6.5-5.6-11.6-12.1-12.1H53.3z"/>
	<circle class="st2_production-line-98" cx="366.2" cy="268.6" r="5.4"/>
	<path class="st2_production-line-98" d="M366.2,274.7c-3.4,0-6.1-2.7-6.1-6.1c0-3.4,2.7-6.1,6.1-6.1c3.4,0,6.1,2.7,6.1,6.1&#10;&#9;&#9;C372.3,272,369.6,274.7,366.2,274.7z M366.2,264c-2.6,0-4.7,2.1-4.7,4.7s2.1,4.7,4.7,4.7s4.7-2.1,4.7-4.7&#10;&#9;&#9;C370.9,266.1,368.8,264,366.2,264L366.2,264z"/>
	<circle class="st2_production-line-98" cx="63.1" cy="268.6" r="5.4"/>
	<path class="st2_production-line-98" d="M63.1,274.7c-3.4,0-6.1-2.7-6.1-6.1c0-3.4,2.7-6.1,6.1-6.1c3.4,0,6.1,2.7,6.1,6.1&#10;&#9;&#9;C69.1,272,66.4,274.7,63.1,274.7z M63.1,264c-2.6,0-4.7,2.1-4.7,4.7c0,2.6,2.1,4.7,4.7,4.7c2.6,0,4.7-2.1,4.7-4.7&#10;&#9;&#9;C67.7,266.1,65.6,264,63.1,264L63.1,264z"/>
	<path class="st2_production-line-98" d="M64.8,326.2H70c1,0,1.7,0.8,1.7,1.7v11.8c0,1-0.8,1.7-1.7,1.7h-5.2c-1,0-1.7-0.8-1.7-1.7V328&#10;&#9;&#9;C63.1,327,63.8,326.2,64.8,326.2z"/>
	<path class="st2_production-line-98" d="M78.2,326.2h5.2c1,0,1.7,0.8,1.7,1.7v11.8c0,1-0.8,1.7-1.7,1.7h-5.2c-1,0-1.7-0.8-1.7-1.7V328&#10;&#9;&#9;C76.5,327,77.3,326.2,78.2,326.2z"/>
</g>
<g id="Windows_production-line-98">
	<rect x="262.1" y="147.5" class="st0_production-line-98" width="183.2" height="43.5"/>
	<path class="st1_production-line-98" d="M445.2,191.7H262.1c-0.4,0-0.7-0.3-0.7-0.7c0,0,0,0,0,0v-43.5c0-0.4,0.3-0.7,0.7-0.7l0,0h183.2&#10;&#9;&#9;c0.4,0,0.7,0.3,0.7,0.7c0,0,0,0,0,0V191C446,191.4,445.7,191.7,445.2,191.7C445.3,191.7,445.3,191.7,445.2,191.7z M262.8,190.3&#10;&#9;&#9;h181.8v-42.1H262.8L262.8,190.3z"/>
	<path class="st1_production-line-98" d="M308.5,191.7c-0.4,0-0.7-0.3-0.7-0.7c0,0,0,0,0,0v-43.5c0-0.4,0.3-0.7,0.7-0.7c0.4,0,0.7,0.3,0.7,0.7V191&#10;&#9;&#9;C309.3,191.4,309,191.7,308.5,191.7C308.6,191.7,308.6,191.7,308.5,191.7z"/>
	<path class="st1_production-line-98" d="M353.7,191.7c-0.4,0-0.7-0.3-0.7-0.7c0,0,0,0,0,0v-43.5c0-0.4,0.3-0.7,0.7-0.7c0.4,0,0.7,0.3,0.7,0.7V191&#10;&#9;&#9;C354.4,191.4,354.1,191.7,353.7,191.7C353.7,191.7,353.7,191.7,353.7,191.7z"/>
	<path class="st1_production-line-98" d="M398.8,191.7c-0.4,0-0.7-0.3-0.7-0.7c0,0,0,0,0,0v-43.5c0-0.4,0.3-0.7,0.7-0.7c0.4,0,0.7,0.3,0.7,0.7&#10;&#9;&#9;c0,0,0,0,0,0V191C399.5,191.4,399.2,191.7,398.8,191.7C398.8,191.7,398.8,191.7,398.8,191.7z"/>
</g>
</svg>